<svg width="112" height="112" viewBox="0 0 112 112" fill="none" xmlns="http://www.w3.org/2000/svg">
<g clip-path="url(#clip0_2058_112652)">
<path fill-rule="evenodd" clip-rule="evenodd" d="M56 0C86.9297 0 112 25.0703 112 56C112 86.9297 86.9297 112 56 112C25.0703 112 0 86.9297 0 56C0 25.0703 25.0703 0 56 0ZM80.8105 80.6456C75.4625 87.4121 67.1826 91.7581 57.8844 91.7581C41.7536 91.7581 28.6742 78.6787 28.6742 62.548C28.6742 58.6637 29.4329 54.9568 30.8101 51.5632L39.8156 56.7999C39.2383 58.6142 38.925 60.544 38.925 62.548C38.925 73.0173 47.415 81.5074 57.8844 81.5074C63.3891 81.5074 68.3455 79.157 71.8091 75.4088L80.8105 80.6456ZM28.4886 27.1815L28.468 40.6115L62.7417 60.2141L68.7166 51.2169L45.6255 37.8818H73.6441L83.532 43.5927C83.532 38.1498 83.532 32.7069 83.532 27.264L28.4886 27.1815ZM62.7417 60.2141L83.4866 72.3947V59.7399L68.7166 51.2169L62.7417 60.2141Z" fill="white"/>
</g>
<defs>
<clipPath id="clip0_2058_112652">
<rect width="112" height="112" fill="white"/>
</clipPath>
</defs>
</svg>
