<svg width="156" height="36" viewBox="0 0 156 36" fill="none" xmlns="http://www.w3.org/2000/svg">
<path fill-rule="evenodd" clip-rule="evenodd" d="M18.4805 0C28.4216 0 36.4805 8.05884 36.4805 18C36.4805 27.9411 28.4216 36 18.4805 36C8.53931 36 0.480469 27.9411 0.480469 18C0.480469 8.05884 8.53931 0 18.4805 0ZM26.4558 25.9217C24.7365 28.097 22.0745 29.4934 19.086 29.4934C13.9007 29.4934 9.69757 25.2899 9.69757 20.105C9.69757 18.8561 9.9417 17.6644 10.3846 16.5745L13.2785 18.2572C13.0932 18.8402 12.993 19.4608 12.993 20.105C12.993 23.4704 15.721 26.1984 19.0864 26.1984C20.8562 26.1984 22.4495 25.4437 23.5628 24.2386L26.4562 25.9217H26.4558ZM9.63753 8.73678L9.63077 13.0545L20.6471 19.3551L22.5687 16.462L15.1465 12.1765H24.1524L27.3302 14.0111C27.3302 12.2616 27.3302 10.5125 27.3302 8.76302L9.63753 8.73598V8.73678ZM20.6471 19.3555L27.3151 23.2708V19.2028L22.5687 16.4624L20.6471 19.3555Z" fill="#43C153"/>
<path d="M50.178 10.4918C46.5219 10.4918 44.1418 12.4548 44.1418 15.3502C44.1418 18.2699 46.2519 19.3498 48.2889 19.8162L51.8714 20.5522C53.5155 20.8958 54.178 21.4846 54.178 22.7363C54.178 24.2333 52.9267 25.2882 50.7179 25.2882C48.5096 25.2882 46.8654 24.2576 46.473 22.1475L43.6758 22.7363C44.0933 25.9264 46.9887 27.6194 50.473 27.6194C54.2515 27.6194 56.7792 25.6807 56.7792 22.5888C56.7792 20.0123 55.0126 18.6381 52.5589 18.0981L49.0006 17.3375C47.5772 17.0433 46.9147 16.4298 46.9147 15.2763C46.9147 13.8286 48.1907 12.7737 50.1291 12.7737C52.0921 12.7737 53.5891 13.9272 53.8833 15.6691L56.5092 15.1292C55.9203 12.3069 53.5155 10.4914 50.1784 10.4914L50.178 10.4918ZM64.7044 14.761C61.9808 14.761 59.8706 16.3069 59.4531 18.5892L61.8825 19.1045C62.1525 17.7304 63.207 16.9944 64.8515 16.9944C66.3974 16.9944 67.4527 17.9761 67.4527 19.5463V19.9145H63.6491C60.5084 19.9145 58.7664 21.485 58.7664 23.7669C58.7664 26.0488 60.5823 27.6198 63.306 27.6198C65.1955 27.6198 66.545 26.8834 67.4531 25.8775V27.2759H69.8821V19.3502C69.8821 16.4055 67.8213 14.7614 64.7048 14.7614L64.7044 14.761ZM63.698 25.5578C62.2014 25.5578 61.2201 24.8218 61.2201 23.7176C61.2201 22.6381 62.1036 21.8775 63.6002 21.8775H67.4527V22.2703C67.4527 24.1351 65.735 25.5582 63.698 25.5582V25.5578ZM75.5255 8.38126H72.9736V23.9383C72.9736 26.1467 74.446 27.619 76.6543 27.619C77.7585 27.619 78.4213 27.3244 79.0591 26.9805L78.5684 24.8461C78.0778 25.0663 77.5135 25.2143 77.0961 25.2143C76.1636 25.2143 75.5259 24.6254 75.5259 23.7908V8.38086L75.5255 8.38126ZM92.236 20.9204C92.1131 17.2644 89.4137 14.761 86.1501 14.761C82.7147 14.761 79.844 17.3375 79.844 21.2147C79.844 25.0667 82.7394 27.619 86.0519 27.619C88.7509 27.619 90.9104 26.3427 91.9163 23.7908L89.6344 23.3001C88.7756 25.0174 87.4014 25.4103 86.0519 25.4103C84.2607 25.4103 82.6165 24.0608 82.3712 21.8031H92.2356V20.92L92.236 20.9204ZM86.1501 17.0186C87.8189 17.0186 89.2177 18.0003 89.6102 19.988H82.4452C82.838 18.025 84.5553 17.0186 86.1505 17.0186H86.1501ZM94.0265 24.0123C94.3457 26.4659 96.6766 27.6194 99.4002 27.6194C102.443 27.6194 104.529 26.2453 104.529 23.6934C104.529 21.9757 103.326 20.8222 101.363 20.4051L98.4678 19.7673C97.3883 19.522 96.9955 19.0803 96.9955 18.3932C96.9955 17.5343 97.6579 16.798 99.1545 16.798C100.725 16.798 101.731 17.6079 101.927 18.7856L104.356 18.2703C103.915 16.2337 102.025 14.7614 99.2281 14.7614C96.3084 14.7614 94.4185 16.3566 94.4185 18.6143C94.4185 20.3316 95.6209 21.4608 97.731 21.9268L100.382 22.4667C101.51 22.7121 102.026 23.1785 102.026 23.9145C102.026 24.8711 101.093 25.5339 99.6209 25.5339C98.0261 25.5339 96.7497 24.9204 96.5784 23.4731L94.0261 24.0127L94.0265 24.0123ZM121.288 10.8349H118.663V20.0123C118.663 23.0795 116.92 25.0914 114.344 25.0914C111.645 25.0914 109.878 23.0795 109.878 20.0123V10.8349H107.253V20.0123C107.253 24.5518 110.074 27.619 114.344 27.619C118.516 27.619 121.288 24.5514 121.288 20.0123V10.8349ZM131.619 14.761C129.803 14.761 128.38 15.4238 127.398 16.6015V15.1045H124.846V27.2751H127.398V21.656C127.398 18.5888 128.846 17.1164 131.03 17.1164C132.772 17.1164 133.925 18.4417 133.925 20.4294V27.2751H136.502V19.9137C136.502 16.8711 134.539 14.7606 131.619 14.7606V14.761ZM141.532 9.85323C140.575 9.85323 139.888 10.5896 139.888 11.4484C139.888 12.3566 140.575 13.0186 141.532 13.0186C142.464 13.0186 143.152 12.3566 143.152 11.4484C143.152 10.5896 142.465 9.85323 141.532 9.85323ZM142.808 27.2755V15.1049H140.256V27.2755H142.808ZM154.168 24.5518C153.531 24.9689 152.745 25.2147 152.107 25.2147C150.905 25.2147 150.095 24.4783 150.095 22.957V17.215H154.267V15.1049H150.095V10.8349H147.543V15.1049H144.918V17.215H147.543V23.1288C147.543 26.1471 149.31 27.6194 151.935 27.6194C152.966 27.6194 153.8 27.3737 154.954 26.687L154.168 24.5522V24.5518Z" fill="white"/>
</svg>
