<svg width="156" height="36" viewBox="0 0 156 36" fill="none" xmlns="http://www.w3.org/2000/svg">
<path fill-rule="evenodd" clip-rule="evenodd" d="M18.4805 0C28.4216 0 36.4805 8.05884 36.4805 18C36.4805 27.9411 28.4216 36 18.4805 36C8.53931 36 0.480469 27.9411 0.480469 18C0.480469 8.05884 8.53931 0 18.4805 0ZM26.4558 25.9217C24.7365 28.097 22.0745 29.4934 19.086 29.4934C13.9007 29.4934 9.69757 25.2899 9.69757 20.105C9.69757 18.8561 9.9417 17.6644 10.3846 16.5745L13.2785 18.2572C13.0932 18.8402 12.993 19.4608 12.993 20.105C12.993 23.4704 15.721 26.1984 19.0864 26.1984C20.8562 26.1984 22.4495 25.4437 23.5628 24.2386L26.4562 25.9217H26.4558ZM9.63753 8.73678L9.63077 13.0545L20.6471 19.3551L22.5687 16.462L15.1465 12.1765H24.1524L27.3302 14.0111C27.3302 12.2616 27.3302 10.5125 27.3302 8.76302L9.63753 8.73598V8.73678ZM20.6471 19.3555L27.3151 23.2708V19.2028L22.5687 16.4624L20.6471 19.3555Z" fill="#43C153"/>
<path d="M50.178 10.4913C46.5219 10.4913 44.1418 12.4543 44.1418 15.3498C44.1418 18.2694 46.2519 19.3494 48.2889 19.8158L51.8714 20.5517C53.5155 20.8953 54.178 21.4841 54.178 22.7358C54.178 24.2329 52.9267 25.2877 50.7179 25.2877C48.5096 25.2877 46.8654 24.2571 46.473 22.147L43.6758 22.7358C44.0933 25.9259 46.9887 27.6189 50.473 27.6189C54.2515 27.6189 56.7792 25.6802 56.7792 22.5883C56.7792 20.0118 55.0126 18.6376 52.5589 18.0977L49.0006 17.337C47.5772 17.0428 46.9147 16.4293 46.9147 15.2758C46.9147 13.8281 48.1907 12.7732 50.1291 12.7732C52.0921 12.7732 53.5891 13.9267 53.8833 15.6686L56.5092 15.1287C55.9203 12.3064 53.5155 10.4909 50.1784 10.4909L50.178 10.4913ZM64.7044 14.7605C61.9808 14.7605 59.8706 16.3064 59.4531 18.5887L61.8825 19.104C62.1525 17.7299 63.207 16.9939 64.8515 16.9939C66.3974 16.9939 67.4527 17.9756 67.4527 19.5458V19.914H63.6491C60.5084 19.914 58.7664 21.4845 58.7664 23.7664C58.7664 26.0484 60.5823 27.6193 63.306 27.6193C65.1955 27.6193 66.545 26.883 67.4531 25.877V27.2754H69.8821V19.3498C69.8821 16.405 67.8213 14.7609 64.7048 14.7609L64.7044 14.7605ZM63.698 25.5573C62.2014 25.5573 61.2201 24.8213 61.2201 23.7171C61.2201 22.6376 62.1036 21.877 63.6002 21.877H67.4527V22.2698C67.4527 24.1346 65.735 25.5577 63.698 25.5577V25.5573ZM75.5255 8.38077H72.9736V23.9378C72.9736 26.1462 74.446 27.6185 76.6543 27.6185C77.7585 27.6185 78.4213 27.3239 79.0591 26.98L78.5684 24.8456C78.0778 25.0659 77.5135 25.2138 77.0961 25.2138C76.1636 25.2138 75.5259 24.6249 75.5259 23.7903V8.38037L75.5255 8.38077ZM92.236 20.9199C92.1131 17.2639 89.4137 14.7605 86.1501 14.7605C82.7147 14.7605 79.844 17.337 79.844 21.2142C79.844 25.0663 82.7394 27.6185 86.0519 27.6185C88.7509 27.6185 90.9104 26.3422 91.9163 23.7903L89.6344 23.2997C88.7756 25.0169 87.4014 25.4098 86.0519 25.4098C84.2607 25.4098 82.6165 24.0603 82.3712 21.8026H92.2356V20.9195L92.236 20.9199ZM86.1501 17.0181C87.8189 17.0181 89.2177 17.9998 89.6102 19.9875H82.4452C82.838 18.0245 84.5553 17.0181 86.1505 17.0181H86.1501ZM94.0265 24.0118C94.3457 26.4655 96.6766 27.6189 99.4002 27.6189C102.443 27.6189 104.529 26.2448 104.529 23.6929C104.529 21.9752 103.326 20.8217 101.363 20.4046L98.4678 19.7669C97.3883 19.5215 96.9955 19.0798 96.9955 18.3927C96.9955 17.5338 97.6579 16.7975 99.1545 16.7975C100.725 16.7975 101.731 17.6074 101.927 18.7851L104.356 18.2698C103.915 16.2333 102.025 14.7609 99.2281 14.7609C96.3084 14.7609 94.4185 16.3561 94.4185 18.6138C94.4185 20.3311 95.6209 21.4603 97.731 21.9263L100.382 22.4663C101.51 22.7116 102.026 23.178 102.026 23.914C102.026 24.8706 101.093 25.5334 99.6209 25.5334C98.0261 25.5334 96.7497 24.9199 96.5784 23.4726L94.0261 24.0122L94.0265 24.0118ZM121.288 10.8344H118.663V20.0118C118.663 23.079 116.92 25.0909 114.344 25.0909C111.645 25.0909 109.878 23.079 109.878 20.0118V10.8344H107.253V20.0118C107.253 24.5513 110.074 27.6185 114.344 27.6185C118.516 27.6185 121.288 24.5509 121.288 20.0118V10.8344ZM131.619 14.7605C129.803 14.7605 128.38 15.4233 127.398 16.601V15.104H124.846V27.2746H127.398V21.6555C127.398 18.5883 128.846 17.116 131.03 17.116C132.772 17.116 133.925 18.4412 133.925 20.4289V27.2746H136.502V19.9132C136.502 16.8706 134.539 14.7601 131.619 14.7601V14.7605ZM141.532 9.85274C140.575 9.85274 139.888 10.5891 139.888 11.448C139.888 12.3561 140.575 13.0181 141.532 13.0181C142.464 13.0181 143.152 12.3561 143.152 11.448C143.152 10.5891 142.465 9.85274 141.532 9.85274ZM142.808 27.275V15.1044H140.256V27.275H142.808ZM154.168 24.5513C153.531 24.9684 152.745 25.2142 152.107 25.2142C150.905 25.2142 150.095 24.4778 150.095 22.9565V17.2146H154.267V15.1044H150.095V10.8344H147.543V15.1044H144.918V17.2146H147.543V23.1283C147.543 26.1466 149.31 27.6189 151.935 27.6189C152.966 27.6189 153.8 27.3732 154.954 26.6865L154.168 24.5517V24.5513Z" fill="#2D2E2C"/>
</svg>
